<?xml version="1.0" standalone="no"?>
<!DOCTYPE svg PUBLIC "-//W3C//DTD SVG 20010904//EN"
 "http://www.w3.org/TR/2001/REC-SVG-20010904/DTD/svg10.dtd">
<svg version="1.0" xmlns="http://www.w3.org/2000/svg"
 width="512.000000pt" height="512.000000pt" viewBox="0 0 512.000000 512.000000"
 preserveAspectRatio="xMidYMid meet">
<metadata>
Created by potrace 1.14, written by Peter Selinger 2001-2017
</metadata>
<g transform="translate(0.000000,512.000000) scale(0.100000,-0.100000)"
fill="#000000" stroke="none">
<path d="M54 5101 c-17 -10 -36 -32 -43 -47 -9 -22 -11 -375 -9 -1484 l3
-1455 27 -100 c157 -576 727 -911 1303 -765 100 26 279 113 366 179 182 139
315 333 386 566 27 90 27 90 31 458 2 202 6 367 10 367 4 0 103 -96 220 -213
l212 -212 0 -260 0 -260 -45 -24 c-53 -28 -114 -92 -147 -153 -19 -37 -23 -58
-23 -143 0 -85 3 -107 24 -148 30 -61 95 -128 149 -153 l41 -19 1 -409 c0
-441 -2 -459 -52 -521 -90 -109 -261 -102 -343 14 l-30 43 -5 337 c-5 358 -4
351 -55 393 -13 11 -37 18 -70 18 l-49 0 -198 -198 -198 -198 0 -46 c0 -80 71
-137 145 -116 16 4 64 42 107 85 l78 78 0 -157 c0 -174 10 -236 49 -318 34
-73 130 -169 206 -206 58 -28 65 -29 200 -29 l140 0 64 35 c110 59 182 143
221 259 19 57 20 84 20 495 l0 434 53 30 c133 75 200 228 163 374 -27 103 -96
188 -188 229 l-28 12 0 146 0 146 412 -412 412 -412 -13 -43 c-18 -57 -16
-163 3 -216 8 -23 29 -61 45 -85 16 -23 233 -245 483 -494 522 -521 499 -503
661 -503 116 0 167 19 237 90 71 70 90 121 90 237 0 164 21 136 -528 684 -453
452 -480 478 -537 499 -71 26 -160 30 -228 11 l-49 -14 -494 494 -494 494 0
511 c0 485 -1 515 -20 577 -49 159 -195 282 -363 306 -269 38 -517 -179 -517
-452 l0 -42 -863 863 c-855 855 -863 862 -902 862 -22 0 -54 -9 -71 -19z
m1833 -2506 c-3 -452 -4 -473 -25 -543 -84 -276 -295 -487 -572 -574 -65 -20
-95 -23 -225 -23 -176 1 -234 13 -370 81 -172 85 -291 206 -375 379 -92 190
-84 60 -87 1520 l-3 1290 830 -830 831 -830 -4 -470z m549 1046 c49 -22 97
-78 113 -130 7 -26 11 -161 11 -412 l0 -374 -220 220 -220 220 0 131 c0 218
21 280 115 335 61 35 137 39 201 10z"/>
</g>
</svg>
